<svg width="340" height="84" viewBox="0 0 340 84" fill="none" xmlns="http://www.w3.org/2000/svg">
  <title>GridPath</title>
  <g transform="translate(7 10)">
    <rect x="10" y="10" width="48" height="48" rx="11" fill="#141414"/>
    <rect x="6" y="6" width="48" height="48" rx="11" fill="#1e7a4d" stroke="#141414" stroke-width="3.5"/>
    <g stroke="#186040" stroke-width="2.25" stroke-linecap="round">
      <path d="M18 18H46M18 31H46M18 44H36"/>
      <path d="M18 18V44M31 18V44M44 18V31"/>
    </g>
    <g fill="#cfe0ce" stroke="#141414" stroke-width="2.25">
      <circle cx="44" cy="18" r="3.15"/>
      <circle cx="18" cy="31" r="3.15"/>
      <circle cx="18" cy="44" r="3.15"/>
      <circle cx="31" cy="44" r="3.15"/>
    </g>
    <path d="M18 18H31L25 31H41L32 46L48 30" stroke="#141414" stroke-width="10" stroke-linecap="round" stroke-linejoin="round"/>
    <path d="M18 18H31L25 31H41L32 46L48 30" stroke="#f5c518" stroke-width="5.4" stroke-linecap="round" stroke-linejoin="round"/>
    <g fill="#f5c518" stroke="#141414" stroke-width="3">
      <circle cx="18" cy="18" r="4"/>
      <circle cx="31" cy="18" r="4"/>
      <circle cx="25" cy="31" r="4"/>
      <circle cx="41" cy="31" r="4"/>
      <circle cx="32" cy="46" r="4"/>
    </g>
    <circle cx="48" cy="30" r="6.25" fill="#f5c518" stroke="#141414" stroke-width="3.3"/>
    <circle cx="48" cy="30" r="2" fill="#fcfbf5"/>
    <path d="M48 22.4V18.7M55.6 30H59.3M42.6 35.4 40.1 37.9" stroke="#141414" stroke-width="2.6" stroke-linecap="round"/>
  </g>
  <text x="88" y="53" fill="#21402f" font-family="'Space Grotesk', system-ui, sans-serif" font-size="40" font-weight="800" letter-spacing="0">GridPath</text>
</svg>
