<svg width="64" height="64" viewBox="0 0 64 64" fill="none" xmlns="http://www.w3.org/2000/svg">
  <rect x="10" y="10" width="48" height="48" rx="11" fill="#141414"/>
  <rect x="6" y="6" width="48" height="48" rx="11" fill="#21402f" stroke="#141414" stroke-width="3.5"/>
  <g fill="#fcfbf5" stroke="#141414" stroke-width="2.7">
    <rect x="13.5" y="13.5" width="14" height="14" rx="4"/>
    <rect x="34.5" y="13.5" width="14" height="14" rx="4"/>
    <rect x="13.5" y="34.5" width="14" height="14" rx="4"/>
    <rect x="34.5" y="34.5" width="14" height="14" rx="4"/>
  </g>
  <path d="M20.5 41.5L31.5 30.5L27.5 30L40.5 18.5L34.7 32.2L39.3 32.2L25.5 46.5L28.3 35.5Z" fill="#f5c518" stroke="#141414" stroke-width="3.3" stroke-linejoin="round"/>
  <path d="M20.5 41.5L31.5 30.5L40.5 18.5" stroke="#141414" stroke-width="2.2" stroke-linecap="round" stroke-linejoin="round"/>
  <circle cx="40.5" cy="18.5" r="6" fill="#f5c518" stroke="#141414" stroke-width="3.2"/>
  <circle cx="40.5" cy="18.5" r="2" fill="#fcfbf5"/>
</svg>
